<svg xmlns:dc="http://purl.org/dc/elements/1.1/" xmlns:cc="http://creativecommons.org/ns#" xmlns:rdf="http://www.w3.org/1999/02/22-rdf-syntax-ns#" xmlns:svg="http://www.w3.org/2000/svg" xmlns="http://www.w3.org/2000/svg" xmlns:sodipodi="http://sodipodi.sourceforge.net/DTD/sodipodi-0.dtd" xmlns:inkscape="http://www.inkscape.org/namespaces/inkscape" version="1.1" x="0px" y="0px" viewBox="0 0 100 100"><g transform="translate(0,-952.36218)"><path style="font-size:medium;font-style:normal;font-variant:normal;font-weight:normal;font-stretch:normal;text-indent:0;text-align:start;text-decoration:none;line-height:normal;letter-spacing:normal;word-spacing:normal;text-transform:none;direction:ltr;block-progression:tb;writing-mode:lr-tb;text-anchor:start;baseline-shift:baseline;opacity:1;color:#000000;fill:#000000;fill-opacity:1;stroke:none;stroke-width:6;marker:none;visibility:visible;display:inline;overflow:visible;enable-background:accumulate;font-family:Sans;-inkscape-font-specification:Sans" d="M 17.6875 5 A 3.0003 3.0003 0 0 0 15 8 L 15 92 A 3.0003 3.0003 0 0 0 18 95 L 82 95 A 3.0003 3.0003 0 0 0 85 92 L 85 26 A 3.0003 3.0003 0 0 0 84.125 23.875 L 66.125 5.875 A 3.0003 3.0003 0 0 0 64 5 L 18 5 A 3.0003 3.0003 0 0 0 17.6875 5 z M 21 11 L 61 11 L 61 26 A 3.0003 3.0003 0 0 0 64 29 L 79 29 L 79 89 L 21 89 L 21 11 z M 67 15.21875 L 74.78125 23 L 67 23 L 67 15.21875 z M 32.6875 30 A 3.0040663 3.0040663 0 1 0 33 36 L 53.5 36 A 3.0003 3.0003 0 1 0 53.5 30 L 33 30 A 3.0003 3.0003 0 0 0 32.6875 30 z M 32.6875 45 A 3.0040663 3.0040663 0 1 0 33 51 L 67 51 A 3.0003 3.0003 0 1 0 67 45 L 33 45 A 3.0003 3.0003 0 0 0 32.6875 45 z M 32.6875 60 A 3.0040663 3.0040663 0 1 0 33 66 L 67 66 A 3.0003 3.0003 0 1 0 67 60 L 33 60 A 3.0003 3.0003 0 0 0 32.6875 60 z M 32.6875 75 A 3.0040663 3.0040663 0 1 0 33 81 L 67 81 A 3.0003 3.0003 0 1 0 67 75 L 33 75 A 3.0003 3.0003 0 0 0 32.6875 75 z " transform="translate(0,952.36218)"></path></g></svg>