<?xml version="1.0" encoding="utf-8"?>
<!-- Generator: Adobe Illustrator 22.0.1, SVG Export Plug-In . SVG Version: 6.00 Build 0)  -->
<svg version="1.1" id="Calque_1" xmlns="http://www.w3.org/2000/svg" xmlns:xlink="http://www.w3.org/1999/xlink" x="0px" y="0px"
	 viewBox="0 0 1684 556" style="enable-background:new 0 0 1684 556;" xml:space="preserve">
<style type="text/css">
	.st0{fill:#3A99D8;}
	.st1{fill:#333333;}
</style>
<g transform="translate(-158.000000,1405.958109) rotate(-360.00) scale(0.095238,-0.095238)">
	<path class="st0" d="M1948,14742c-121-39-230-149-268-271c-21-66-21-104-21-2627s0-2561,21-2627c39-124,147-232,271-271
		c67-21,120-21,8549-21s8482,0,8549,21c124,39,232,147,271,271c21,66,21,104,21,2627s0,2561-21,2627c-39,124-147,232-271,271
		c-67,21-119,21-8553,20C2150,14762,2010,14761,1948,14742z M19017,14524c45-24,61-40,85-85l29-56v-2539V9305l-29-56
		c-24-45-40-61-85-85l-56-29h-8461H2039l-56,29c-45,24-61,40-85,85l-29,56v2539v2539l29,56c24,45,40,61,85,85l56,29h8461h8461
		L19017,14524z"/>
	<path class="st0" d="M4772,13422c-50-10-83-30-111-69l-30-42v-712v-712l-719-3c-710-3-719-4-748-25c-104-77-104-215,0-292
		c29-22,38-22,748-25l719-3v-711v-712l26-39c34-49,79-73,142-73c62,0,107,24,141,73l27,39v712v711l718,3c710,3,719,3,748,25
		c104,77,104,215,0,292c-29,21-38,22-748,25l-718,3v711v711l-27,39C4903,13403,4832,13434,4772,13422z"/>
	<path class="st1" d="M8803,13242c-71-44-67,33-67-1390c0-1227,1-1286,20-1327c44-97,186-104,243-11c20,32,20,61,20,1135
		c0,1077,1,1102,20,1082c11-11,394-512,852-1113c458-600,848-1108,867-1127c64-67,177-52,219,29c15,29,16,173,14,1350l-3,1318
		l-33,32c-62,63-181,49-222-26c-16-30-18-121-23-1133l-5-1100l-865,1135c-556,730-875,1140-894,1150
		C8904,13267,8842,13265,8803,13242z"/>
	<path class="st1" d="M12311,12415c-367-79-623-351-710-755c-8-37-14-132-14-231c0-203,21-301,98-462c133-276,369-455,689-521
		c84-17,310-17,389,1c155,34,315,103,432,185c71,50,77,60,77,122c0,34-7,49-36,78c-31,31-42,36-87,36c-44,0-61-7-118-47
		c-226-159-551-187-795-67c-131,64-252,186-317,319c-29,59-75,214-75,254c0,10,155,13,741,13c796,0,789,0,827,54c23,31,23,162,2,285
		c-66,379-331,666-680,737C12632,12436,12411,12436,12311,12415z M12742,12154c105-35,175-81,253-167c95-103,171-275,172-387v-29
		h-656c-621,0-656,1-656,19c0,34,42,172,69,226c102,202,265,324,485,364C12496,12196,12653,12184,12742,12154z"/>
	<path class="st1" d="M13634,12412c-45-19-63-53-62-115c0-88,562-1764,606-1809c54-54,164-50,205,10c11,15,116,347,233,737
		s216,712,219,716c4,5,104-312,221-703c118-391,221-722,229-735c21-36,76-65,120-65c38-1,99,32,116,63c5,8,139,402,297,875
		c314,934,316,941,264,997c-48,51-151,46-195-11c-11-14-51-119-89-232c-37-114-142-434-232-711c-127-386-168-499-175-483
		c-5,12-101,331-213,709c-113,378-214,700-224,714c-45,60-143,66-202,13c-28-26-52-98-249-745c-119-394-220-713-224-709
		s-109,322-235,706c-125,384-235,709-243,722C13770,12405,13684,12434,13634,12412z"/>
</g>
</svg>
