<svg fill="#333333" xmlns:x="http://ns.adobe.com/Extensibility/1.0/" xmlns:i="http://ns.adobe.com/AdobeIllustrator/10.0/" xmlns:graph="http://ns.adobe.com/Graphs/1.0/" xmlns="http://www.w3.org/2000/svg" xmlns:xlink="http://www.w3.org/1999/xlink" version="1.1" x="0px" y="0px" viewBox="0 0 100 100" enable-background="new 0 0 100 100" xml:space="preserve"><metadata><sfw xmlns="http://ns.adobe.com/SaveForWeb/1.0/"><slices></slices><sliceSourceBounds width="1447.7" height="1443.7" x="1.2" y="-1446.3" bottomLeftOrigin="true"></sliceSourceBounds></sfw></metadata><path d="M50,97.4c26.1,0,47.4-21.3,47.4-47.4S76.1,2.6,50,2.6S2.6,23.9,2.6,50S23.9,97.4,50,97.4z M50,13.9  c19.9,0,36.1,16.2,36.1,36.1S69.9,86.1,50,86.1S13.9,69.9,13.9,50S30.1,13.9,50,13.9z M29.7,50c0-3.1,2.5-5.6,5.6-5.6h9.1v-9.1  c0-3.1,2.5-5.6,5.6-5.6s5.6,2.5,5.6,5.6v9.1h9.1c3.1,0,5.6,2.5,5.6,5.6s-2.5,5.6-5.6,5.6h-9.1v9.1c0,3.1-2.5,5.6-5.6,5.6  s-5.6-2.5-5.6-5.6v-9.1h-9.1C32.2,55.6,29.7,53.1,29.7,50z"></path></svg>