<?xml version="1.0" encoding="utf-8"?>
<!-- Generator: Adobe Illustrator 22.0.1, SVG Export Plug-In . SVG Version: 6.00 Build 0)  -->
<svg version="1.1" id="Calque_1" xmlns="http://www.w3.org/2000/svg" xmlns:xlink="http://www.w3.org/1999/xlink" x="0px" y="0px"
	 viewBox="0 0 4525.9 1762.8" style="enable-background:new 0 0 4525.9 1762.8;" xml:space="preserve">
<style type="text/css">
	.st0{fill:#FAFAFA;}
</style>
<g transform="translate(-259.034255,3928.793860) rotate(-360.00) scale(0.095238,-0.095238)">
	<path class="st0" d="M31107.3,40525.4c-1524.4-84.6-2923.2-576.1-4058-1427c-349.5-262.1-745.4-626.1-987.4-910.1
		c-34.6-40-70.1-72.8-79.2-72.8c-9.1-0.9-71.9,14.6-138.3,33.7c-263,73.7-591.6,139.2-881.9,174.7
		c-281.2,34.6-438.7,43.7-735.3,43.7c-1275,0-2519.1-407.7-3564.8-1170.4c-474.2-344.9-937.4-802.7-1286.9-1270.5
		c-152-203.9-329.4-479.6-454.1-706.2l-16.4-29.1l-69.2,23.7c-468.7,160.2-1025.7,162.9-1513.5,7.3
		c-715.3-227.5-1298.7-782.7-1560.8-1486.2c-101.9-272.1-143.8-487.8-152.9-790.9l-6.4-205.7l-123.8-43.7
		c-362.2-127.4-695.3-314-998.4-561.5c-115.6-93.7-349.5-325.8-438.7-434.1l-60.1-73.7h372.2h372.2l41.9,35.5
		c323.1,281.2,739,496.9,1143.1,594.3c108.3,26.4,176.6,66.4,218.4,127.4c46.4,68.3,55.5,127.4,37.3,248.5
		c-29.1,200.2-15.5,479.6,34.6,685.3c131.1,537.9,487.8,996.5,975.6,1255c513.3,272.1,1157.6,290.3,1680.9,47.3
		c91.9-42.8,103.8-45.5,175.6-45.5c50.1,0,84.6,4.5,101,14.6c19.1,10,53.7,69.2,132,223.9c544.2,1083,1400.6,1935.7,2485.4,2478.1
		c1136.7,567.9,2407.2,726.2,3666.7,455c787.2-169.3,1565.3-534.2,2215.1-1040.2c550.6-428.6,1002-939.2,1370.6-1553.5
		c42.8-71,128.3-230.2,190.2-353.1c269.4-539.7,448.7-1114.8,526.9-1688.2c10.9-83.7,22.8-161.1,24.6-172.9l4.5-21.8h244.8h244.8
		l-6.4,79.2c-8.2,102.8-46.4,353.1-77.4,508.7c-368.6,1852-1590.8,3430.1-3301.8,4262.8c-86.5,41.9-182,87.4-213,99.2
		c-30,12.7-54.6,26.4-54.6,30c0,17.3,405,413.2,539.7,528.8c893.7,763.6,2016.7,1275.9,3220.8,1471.6
		c396.8,63.7,687.1,86.5,1136.7,86.5c360.4,0,536.9-10,831.8-43.7c1375.1-160.2,2632.9-709.9,3602.1-1577.2
		c442.3-395,835.5-876.4,1123-1372.4c88.3-153.8,137.4-206.6,220.2-236.6c76.4-27.3,168.4-24.6,253,9.1
		c231.2,90.1,408.6,140.2,601.6,168.4c1025.7,151.1,2028.6-362.2,2397.2-1225.9c120.1-280.3,163.8-619.8,116.5-911.9
		c-15.5-99.2-15.5-110.1-0.9-159.3c18.2-63.7,80.1-136.5,140.2-166.5c23.7-10.9,91.9-31.9,152-45.5
		c654.3-149.3,1197.7-447.8,1628.1-893.7c199.3-207.5,351.3-422.3,474.2-673.5c87.4-180.2,121-266.7,165.6-426.8
		c65.5-233,92.8-423.2,92.8-650.7v-150.2h310.3h310.3v154.7c0,473.2-138.3,992-379.5,1426.1c-167.5,301.2-413.2,608.8-668.9,838.2
		c-435,390.4-919.2,658.9-1505.3,834.5l-83.7,24.6v145.6c0,337.6-72.8,647.1-223.9,957.4c-375.9,769.9-1172.2,1322.3-2107.7,1461.6
		c-436.8,64.6-902.8,33.7-1322.3-87.4c-98.3-28.2-83.7-35.5-159.3,82.8c-370.4,585.2-903.7,1151.3-1517.1,1612.7
		c-492.4,370.4-1073,693.5-1664.5,926.5c-754.5,297.6-1506.2,461.4-2374.4,518.7C31766.2,40530.9,31240.2,40533.6,31107.3,40525.4z"
		/>
	<path class="st0" d="M6180.2,32313.8c-340.4-37.3-619.8-151.1-839.1-341.3c-244.8-212-443.2-566.1-521.5-929.2
		c-51-238.4-51.9-253-55.5-1136.7c-4.6-861.8-0.9-982.9,35.5-1154.9c83.7-399.5,329.4-732.6,692.6-941
		c146.5-83.7,304-129.2,736.3-212c1119.4-215.7,1306-266.7,1526.2-413.2c105.6-71,190.2-167.5,245.7-282.1
		c26.4-53.7,57.3-136.5,69.2-183.8c21.8-85.5,21.8-92.8,21.8-698c0-598.8,0-613.4-21.8-709c-42.8-196.6-118.3-352.2-209.3-434.1
		c-81-72.8-51.9-70.1-787.2-70.1h-654.3l-74.6,36.4c-158.4,78.3-359.5,327.6-475.1,589.7c-91.9,208.4-199.3,327.6-366.8,406.8
		c-126.5,60.1-237.5,61-394.1,5.5c-142-50.1-237.5-133.8-308.5-270.3c-64.6-124.7-81.9-252.1-52.8-379.5
		c31.9-135.6,154.7-406.8,276.7-610.7c252.1-424.1,663.4-770.8,1023.8-862.8c146.5-37.3,201.1-39.1,1041.1-35.5
		c784.5,3.6,815.4,4.6,921.9,24.6c310.3,58.2,547.9,174.7,730.8,359.5c204.8,205.7,365.9,514.2,435,833.6
		c51,234.8,51,231.2,54.6,1077.5c2.7,530.6,0.9,836.4-6.4,922.8c-47.3,570.6-279.4,942.8-749.9,1201.3
		c-268.5,148.3-400.4,206.6-585.2,260.3c-84.6,24.6-598.8,124.7-1393.3,273c-398.6,73.7-544.2,212-587,557.9
		c-13.7,108.3-13.7,1391.5-0.9,1500.7c12.7,98.3,39.1,215.7,66.4,287.6c40,107.4,130.1,175.6,273,203.9
		c66.4,13.7,159.3,15.5,735.3,12.7l659.8-2.7l51-21.8c105.6-44.6,222.1-142,288.5-241.2c45.5-66.4,110.1-199.3,152-311.2
		c50.1-132,85.5-192.9,158.4-270.3c107.4-113.8,235.7-172,375.9-172.9c161.1,0,314,63.7,432.3,181.1
		c164.7,163.8,196.6,328.5,119.2,617c-100.1,374-260.3,653.4-529.7,922.8c-181.1,180.2-349.5,283.9-569.7,351.3
		c-205.7,63.7-178.4,61.9-1061.2,63.7C6618,32321.1,6222.1,32318.3,6180.2,32313.8z"/>
	<path class="st0" d="M27649.9,32309.2c-179.3-39.1-336.7-187.5-400.4-376.8c-17.3-51-17.3-189.3-20-3892.4
		c-2.7-4245.5-7.3-3908.8,59.2-4044.4c86.5-175.6,260.3-294,449.6-307.6c290.3-20,521.5,141.1,604.3,422.3
		c15.5,53.7,17.3,155.6,21.8,1438.8l4.6,1380.6l30.9,64.6c50.1,106.5,149.3,190.2,301.2,253.9l60.1,25.5l549.7,4.6
		c538.8,4.5,549.7,5.5,606.1,26.4c135.6,51,244.8,148.3,304.9,272.1c46.4,94.6,63.7,166.5,63.7,274.8
		c0,168.4-41.9,271.2-157.4,387.7c-59.2,60.1-93.7,85.5-148.3,111.9c-129.2,61-160.2,64.6-716.2,64.6c-479.6,0-498.7,0-549.7,19.1
		c-72.8,27.3-124.7,57.3-191.1,111c-69.2,56.4-111.9,117.4-138.3,197.5c-20,60.1-20,64.6-18.2,1086.6l2.7,1026.6l30.9,64.6
		c50.1,106.5,149.3,190.2,301.2,253.9l60.1,25.5l964.7,5.5l965.6,4.6l57.3,22.8c241.2,96.5,384.1,319.4,364,567
		c-20,233-149.3,409.5-364,495.1l-57.3,23.7l-1490.7,1.8C27973,32322,27699.1,32320.1,27649.9,32309.2z"/>
	<path class="st0" d="M12754.6,31179.8c-52.8-7.3-132-32.8-190.2-61.9c-73.7-37.3-191.1-154.7-228.4-228.4
		c-57.3-116.5-53.7,82.8-53.7-2795.8c0-2320.7,0.9-2652.9,14.6-2752.1c81.9-628,404.1-1158.5,869.1-1431.6
		c105.6-62.8,170.2-91.9,287.6-129.2c189.3-61,180.2-60.1,950.1-64.6c735.3-3.6,826.4-0.9,1002.9,37.3
		c273,58.2,531.5,205.7,760.8,433.2c123.8,122.9,184.7,202,279.4,365.9c125.6,216.6,230.2,532.4,259.4,780.8
		c6.4,57.3,9.1,988.3,9.1,2733.9c0,2313.4-0.9,2653.8-13.7,2702c-46.4,176.6-192,326.7-373.1,385c-154.7,49.1-320.3,39.1-447.8-27.3
		c-81-41.9-195.7-157.4-235.7-236.6c-61-121-56.4,81.9-56.4-2743c0-1756.5-3.6-2611-10.9-2665.6c-20-161.1-111-371.3-205.7-476.9
		c-55.5-61-133.8-107.4-219.3-129.2c-83.7-22.8-1281.4-21.8-1366,0c-151.1,39.1-256.6,165.6-334.9,399.5
		c-60.1,182-54.6-46.4-61,2858.6l-5.5,2646.5l-20.9,51c-71.9,167.5-224.8,303.1-385.9,340.4
		C12922.1,31185.3,12822,31188.9,12754.6,31179.8z"/>
	<path class="st0" d="M20485.8,31160.7c-120.1-16.4-229.3-71.9-315.8-159.3c-78.3-79.2-112.8-139.2-138.3-241.2
		c-19.1-72.8-19.1-116.5-19.1-3333.6c0-3593-4.6-3302.7,59.2-3435.6c20.9-43.7,52.8-85.5,107.4-139.2
		c89.2-90.1,163.8-131.1,278.5-152.9c207.5-39.1,372.2,8.2,510.6,147.4c82.8,83.7,125.6,157.4,152.9,264.8
		c18.2,71.9,19.1,111,19.1,1353.3v1278.7h1073c1158.5,0,1159.4,0,1336.9,51.9c169.3,49.1,378.6,156.5,562.4,287.6
		c101,72.8,299.4,263,377.7,363.1c155.6,199.3,266.7,428.6,315.8,654.3c16.4,74.6,18.2,133.8,18.2,769c0,748.1-1.8,774.5-57.3,959.2
		c-96.5,319.4-304,629.8-566.1,843.6c-237.5,194.8-571.5,354.9-896.4,431.4c-259.4,61-184.7,58.2-1548,60.1
		C21073.7,31164.3,20501.2,31163.4,20485.8,31160.7z M23027.6,30024c309.4-71,494.2-190.2,586.1-376.8
		c68.3-137.4,69.2-150.2,66.4-752.6l-2.7-531.5l-30-63.7c-48.2-100.1-104.7-177.5-198.4-271.2c-91-90.1-166.5-136.5-253.9-156.5
		c-28.2-6.4-337.6-10-880-10c-909.2-0.9-882.8-1.8-1000.2,53.7c-71,32.8-120.1,84.6-147.4,152.9l-22.8,55.5v821.8v821.8l25.5,59.2
		c12.7,31.9,34.6,71.9,47.3,87.4c34.6,42.8,107.4,89.2,178.4,113.8l64.6,21.8l740.8-2.7
		C22909.3,30044,22944.8,30043.1,23027.6,30024z"/>
	<path class="st0" d="M33631.9,31153.4c-159.3-35.5-313.1-153.8-379.5-293c-67.3-142-62.8,141.1-60.1-3464.7l2.7-3256.3l20-52.8
		c41-105.6,73.7-158.4,145.6-230.2c260.3-259.4,672.6-218.4,869.1,85.5c51,79.2,76.4,158.4,88.3,273.9
		c6.4,61.9,9.1,1204.9,7.3,3287.2c-2.7,3017.8-3.6,3194.4-20,3249c-31.9,108.3-72.8,176.6-149.3,253c-40,40-94.6,83.7-121.9,98.3
		C33924,31161.6,33763.8,31181.6,33631.9,31153.4z"/>
	<path class="st0" d="M38180.4,31148c-102.8-26.4-160.2-61-245.7-147.4c-83.7-83.7-128.3-160.2-148.3-253c-8.2-40-10-888.2-7.3-3340
		l2.7-3287.2l21.8-60.1c67.3-179.3,228.4-324,400.4-361.3c54.6-10.9,289.4-13.7,1487.1-13.7c1569.9,0,1500.7-2.7,1630.9,60.1
		c90.1,43.7,199.3,154.7,243,246.6c18.2,39.1,40,96.5,48.2,127.4c19.1,73.7,19.1,205.7,0,277.6c-44.6,172-186.6,318.5-367.7,380.4
		l-61.9,20.9l-998.4,4.6l-999.3,5.5l-53.7,21.8c-131.1,52.8-197.5,127.4-217.5,245.7c-7.3,41-10.9,921-10.9,2838.5
		c0,3066.1,4.6,2839.4-59.2,2960.5c-45.5,85.5-149.2,185.7-236.6,229.3C38480.8,31166.2,38315.1,31183.5,38180.4,31148z"/>
	<path class="st0" d="M44193.3,31151.6c-168.4-35.5-313.1-144.7-387.7-292.1c-60.1-119.2-56.4,137.4-56.4-3428.3
		c0-2866.8,1.8-3260.8,14.6-3314.5c35.5-152,150.2-293,293-364c146.5-71.9,29.1-68.3,1844.7-65.5l1627.2,2.7l61.9,22.8
		c168.4,60.1,306.7,196.6,363.1,357.7c26.4,73.7,35.5,226.6,20,304.9c-19.1,92.8-63.7,167.5-148.3,252.1
		c-57.3,58.2-95.6,86.5-148.3,112.9c-134.7,65.5-83.7,62.8-1326.9,62.8c-1231.3,0.9-1173.1-1.8-1292.3,58.2
		c-69.2,34.6-117.4,91-142.9,166.5c-19.1,58.2-19.1,73.7-17.3,794.5l2.7,734.4l30.9,63.7c38.2,76.4,79.2,114.7,173.8,160.2
		l72.8,34.6l597,5.5c449.6,3.6,607,8.2,635.2,17.3c185.7,60.1,334,216.6,378.6,402.3c20,80.1,17.3,260.3-4.6,324.9
		c-61,179.3-198.4,316.7-374,374c-28.2,9.1-185.7,13.7-635.2,17.3c-596.1,5.5-597,5.5-651.6,27.3
		c-117.4,47.3-170.2,97.4-208.4,199.3c-19.1,51.9-19.1,65.5-17.3,828.2l2.7,775.4l30.9,63.7c38.2,76.4,79.2,114.7,173.8,160.2
		l72.8,34.6l1022,4.5l1022.9,4.6l65.5,23.7c135.6,47.3,288.5,173.8,348.6,285.8c104.7,197.5,61,455.9-104.7,621.6
		c-60.1,59.2-166.5,127.4-243.9,154.7l-65.5,22.8l-1481.6,1.8C44464.6,31166.2,44251.6,31164.3,44193.3,31151.6z"/>
</g>
</svg>
